<svg xmlns="http://www.w3.org/2000/svg" viewBox="0 0 200 200" width="200" height="200">
      <defs>
        <linearGradient id="woodTileGrad" x1="0%" y1="0%" x2="0%" y2="100%">
          <stop offset="0%" stop-color="#7A4424"/>
          <stop offset="50%" stop-color="#4E2A14"/>
          <stop offset="100%" stop-color="#2B1508"/>
        </linearGradient>
        <linearGradient id="lilyGrad" x1="0%" y1="0%" x2="100%" y2="100%">
          <stop offset="0%" stop-color="#80FF72"/>
          <stop offset="100%" stop-color="#18A558"/>
        </linearGradient>
        <radialGradient id="frogSymGrad" cx="40%" cy="30%" r="70%">
          <stop offset="0%" stop-color="#FFF3B0"/>
          <stop offset="55%" stop-color="#FFD100"/>
          <stop offset="100%" stop-color="#D97706"/>
        </radialGradient>
        
        
      </defs>

      <g opacity="0.42">
        
        
        
        <!-- Mossy Swamp Rune Stone -->
        <polygon points="52,162 32,108 62,44 134,38 168,98 152,162" fill="#5C6B73" stroke="#1A0C05" stroke-width="6.5" stroke-linejoin="round"/>
        <polygon points="62,44 134,38 152,82 72,88" fill="#8D99AE" opacity="0.5"/>
        <!-- Glowing Cyan Rune -->
        <path d="M100,64 L124,98 L100,136 L76,98 Z" fill="none" stroke="#00F5D4" stroke-width="7" stroke-linejoin="round"/>
        <circle cx="100" cy="100" r="10" fill="#00F5D4"/>
        <!-- Green Moss Cap -->
        <path d="M48,68 C62,36 136,32 152,66 C134,78 116,64 98,74 C78,62 64,78 48,68 Z" fill="#38E54D" stroke="#1A0C05" stroke-width="5" stroke-linejoin="round"/>
      
      </g>
    </svg>